<?xml version="1.0" encoding="utf-8"?>
<!-- Generator: Adobe Illustrator 25.2.0, SVG Export Plug-In . SVG Version: 6.00 Build 0)  -->
<svg version="1.1" id="Layer_1" xmlns="http://www.w3.org/2000/svg" xmlns:xlink="http://www.w3.org/1999/xlink" x="0px" y="0px"
	 viewBox="0 0 660.5 93.6" style="enable-background:new 0 0 660.5 93.6;" xml:space="preserve">
<style type="text/css">
	.st0{fill-rule:evenodd;clip-rule:evenodd;fill:url(#Path_423_1_);}
	.st1{fill:#1B1C22;}
</style>
<g id="Group_2320" transform="translate(-276.998 -2480.82)">
	
		<linearGradient id="Path_423_1_" gradientUnits="userSpaceOnUse" x1="385.7568" y1="2938.6467" x2="384.9499" y2="2939.3186" gradientTransform="matrix(271.98 0 0 -94.8573 -104365.5 281319.5625)">
		<stop  offset="0" style="stop-color:#E7791A"/>
		<stop  offset="1" style="stop-color:#E7461A"/>
	</linearGradient>
	<path id="Path_423" class="st0" d="M465.3,2560.3c-21.9,0.1-39.8-17.7-39.8-39.6s17.7-39.8,39.6-39.8c21.9-0.1,39.8,17.7,39.8,39.6
		c0,0,0,0.1,0,0.1C504.9,2542.5,487.2,2560.3,465.3,2560.3z M465.3,2500.7c-11,0-19.9,8.8-20,19.8c0,11,8.8,19.9,19.8,20
		c11,0,19.9-8.8,20-19.8c0,0,0,0,0-0.1C485.1,2509.6,476.3,2500.7,465.3,2500.7z M411.1,2508.4c-2.3,0-4.5-0.8-6.3-2.3
		c-7.6-7.1-19.5-7.1-27.1,0.1l0,0c-4.3,3.5-10.5,2.8-14-1.4c-3.3-4.1-2.9-10,0.9-13.6h0c0,0,0.1-0.1,0.1-0.1
		c0.2-0.2,0.5-0.4,0.8-0.6c14.9-12.9,37.1-12.8,52,0.2c0,0,0.1,0.1,0.1,0.1c0.3,0.2,0.5,0.4,0.8,0.6l0,0c3.9,3.9,3.8,10.2-0.1,14.1
		C416.2,2507.3,413.7,2508.4,411.1,2508.4z M316.8,2560.3c-21.9,0.1-39.8-17.7-39.8-39.6s17.7-39.8,39.6-39.8s39.8,17.7,39.8,39.6
		c0,0,0,0.1,0,0.1C356.5,2542.5,338.7,2560.3,316.8,2560.3C316.8,2560.3,316.8,2560.3,316.8,2560.3z M316.8,2500.5
		c-11.1,0-20.1,8.9-20.1,20c0,11.1,8.9,20.1,20,20.1s20.1-8.9,20.1-20c0,0,0,0,0,0C336.8,2509.5,327.9,2500.6,316.8,2500.5
		C316.8,2500.5,316.8,2500.5,316.8,2500.5z"/>
	<path id="Path_429" class="st1" d="M620.8,2485.9l-16.1,49.1l-15.8-49.1H574l-16.3,48.7l-15.6-48.7h-16.6l22.8,69.3h17.1l15.7-46.9
		l15.2,46.9h17.2l22.7-69.3H620.8z M656.5,2501.2c-8.5,0-17.1,2.3-23,6.4l5.5,10.8c4.4-3.3,9.8-5,15.3-4.9c8.3,0,12.3,3.9,12.3,10.5
		h-12.3c-16.2,0-22.9,6.5-22.9,15.9c0,9.2,7.4,16.1,19.9,16.1c7.8,0,13.4-2.6,16.2-7.4v6.6h14.5v-30.4
		C682.2,2508.7,672.8,2501.2,656.5,2501.2z M655.4,2545.6c-5.4,0-8.7-2.6-8.7-6.4c0-3.6,2.3-6.2,9.5-6.2h10.6v5.4
		C665,2543.2,660.5,2545.6,655.4,2545.6z M706,2509v-7h-14.8v53.3h15.4v-25.1c0-10.2,5.6-14.8,14.2-14.8c1.2,0,2.2,0.1,3.5,0.2
		v-14.3C716,2501.2,709.7,2503.8,706,2509L706,2509z M760,2501.2c-7.1,0-12.9,2.3-16.7,6.9v-6.1h-14.8v72.5H744v-24.8
		c4,4.4,9.4,6.4,16,6.4c14.9,0,26.5-10.7,26.5-27.4C786.5,2511.8,775,2501.2,760,2501.2L760,2501.2z M757.3,2543.3
		c-7.7,0-13.6-5.5-13.6-14.8s5.8-14.8,13.6-14.8c7.7,0,13.6,5.5,13.6,14.8S765.1,2543.3,757.3,2543.3z M859.4,2485.9l-21.4,49.5
		l-21.1-49.5h-17.3l29.9,69.3h15.8l30-69.3H859.4z M937.5,2555.2l-15.5-22.3c9-3.9,14.3-11.5,14.3-21.9c0-15.5-11.6-25.1-30.1-25.1
		h-30v69.3h16v-19.3h14.8l13.4,19.3H937.5z M920,2511.1c0,7.5-5,12.1-14.8,12.1h-13.1V2499h13.1C915,2499,920,2503.4,920,2511.1z"/>
</g>
</svg>
